<svg width="20" height="20" viewBox="0 0 20 20" fill="none" xmlns="http://www.w3.org/2000/svg">
<path d="M10.6058 3.07254C10.681 2.99299 10.7397 2.8994 10.7788 2.79712C10.8178 2.69485 10.8363 2.58589 10.8332 2.47647C10.8301 2.36706 10.8055 2.25932 10.7607 2.15941C10.716 2.05951 10.652 1.96939 10.5725 1.89421C10.4929 1.81903 10.3993 1.76025 10.297 1.72124C10.1948 1.68223 10.0858 1.66374 9.97639 1.66684C9.86697 1.66993 9.75923 1.69455 9.65933 1.73928C9.55942 1.78401 9.46931 1.84799 9.39413 1.92754L2.31079 9.42754C2.16451 9.58227 2.08301 9.78712 2.08301 10C2.08301 10.213 2.16451 10.4178 2.31079 10.5725L9.39413 18.0734C9.46881 18.1547 9.55891 18.2203 9.65918 18.2665C9.75945 18.3127 9.8679 18.3385 9.97823 18.3424C10.0886 18.3463 10.1986 18.3283 10.3019 18.2894C10.4052 18.2504 10.4997 18.1913 10.58 18.1155C10.6602 18.0397 10.7246 17.9487 10.7694 17.8478C10.8142 17.7469 10.8386 17.6381 10.841 17.5278C10.8434 17.4174 10.8238 17.3076 10.7834 17.2049C10.7431 17.1021 10.6827 17.0084 10.6058 16.9292L4.06246 10L10.6058 3.07254Z" fill="white"/>
</svg>
