<svg width="57" height="57" viewBox="0 0 57 57" fill="none" xmlns="http://www.w3.org/2000/svg">
<circle cx="28.5" cy="28.5" r="28.5" fill="#FFC901"/>
<path d="M19.021 36.3012C19.4155 36.6968 19.6131 37.2477 19.5598 37.8038C19.4405 39.0502 19.1657 40.3472 18.8127 41.5522C21.4281 40.9477 23.0255 40.2465 23.7515 39.8785C24.1637 39.6697 24.6384 39.6203 25.0847 39.74C26.3181 40.0707 27.6327 40.25 29 40.25C36.4917 40.25 42.125 34.9859 42.125 29C42.125 23.0141 36.4917 17.75 29 17.75C21.5083 17.75 15.875 23.0141 15.875 29C15.875 31.7527 17.0324 34.307 19.021 36.3012ZM18.0967 43.623C18.084 43.6255 18.0714 43.628 18.0587 43.6305C17.8866 43.6644 17.711 43.6978 17.5322 43.7306C17.2812 43.7766 17.0237 43.8213 16.7595 43.8645C16.3863 43.9256 16.1007 43.5352 16.2481 43.187C16.3444 42.9595 16.4393 42.7211 16.5318 42.4739C16.5906 42.3168 16.6483 42.1562 16.7049 41.9926C16.7073 41.9856 16.7097 41.9785 16.7121 41.9715C17.1767 40.622 17.5549 39.0708 17.6933 37.6251C15.3932 35.3185 14 32.3016 14 29C14 21.7513 20.7157 15.875 29 15.875C37.2843 15.875 44 21.7513 44 29C44 36.2487 37.2843 42.125 29 42.125C27.4686 42.125 25.9908 41.9242 24.5991 41.551C23.6251 42.0446 21.5269 42.9431 18.0967 43.623Z" fill="white"/>
<path d="M27.2483 26.6761C26.6913 25.8178 25.7245 25.25 24.625 25.25C22.8991 25.25 21.5 26.6491 21.5 28.375C21.5 30.1009 22.8991 31.5 24.625 31.5C25.2424 31.5 25.818 31.321 26.3026 31.012C26.0561 31.7412 25.5995 32.5188 24.8442 33.3011C24.5445 33.6115 24.5532 34.1061 24.8636 34.4058C25.174 34.7055 25.6686 34.6968 25.9683 34.3864C28.7569 31.4982 28.3941 28.3597 27.2483 26.6761Z" fill="white"/>
<path d="M34.7483 26.6761C34.1913 25.8178 33.2245 25.25 32.125 25.25C30.3991 25.25 29 26.6491 29 28.375C29 30.1009 30.3991 31.5 32.125 31.5C32.7424 31.5 33.318 31.321 33.8026 31.012C33.5561 31.7412 33.0995 32.5188 32.3442 33.3011C32.0445 33.6115 32.0532 34.1061 32.3636 34.4058C32.674 34.7055 33.1686 34.6968 33.4683 34.3864C36.2568 31.4982 35.8941 28.3597 34.7483 26.6761Z" fill="white"/>
</svg>
