<svg width="57" height="57" viewBox="0 0 57 57" fill="none" xmlns="http://www.w3.org/2000/svg">
<circle cx="28.5" cy="28.5" r="28.5" fill="#FFC901"/>
<path d="M29 29C32.1066 29 34.625 26.4816 34.625 23.375C34.625 20.2684 32.1066 17.75 29 17.75C25.8934 17.75 23.375 20.2684 23.375 23.375C23.375 26.4816 25.8934 29 29 29ZM32.75 23.375C32.75 25.4461 31.0711 27.125 29 27.125C26.9289 27.125 25.25 25.4461 25.25 23.375C25.25 21.3039 26.9289 19.625 29 19.625C31.0711 19.625 32.75 21.3039 32.75 23.375Z" fill="white"/>
<path d="M40.25 38.375C40.25 40.25 38.375 40.25 38.375 40.25H19.625C19.625 40.25 17.75 40.25 17.75 38.375C17.75 36.5 19.625 30.875 29 30.875C38.375 30.875 40.25 36.5 40.25 38.375ZM38.375 38.3685C38.3723 37.9057 38.0867 36.5196 36.8148 35.2477C35.5918 34.0247 33.2921 32.75 29 32.75C24.7079 32.75 22.4082 34.0247 21.1852 35.2477C19.9133 36.5196 19.6277 37.9057 19.625 38.3685H38.375Z" fill="white"/>
</svg>
