<svg width="24" height="24" viewBox="0 0 24 24" fill="none" xmlns="http://www.w3.org/2000/svg">
<path fill-rule="evenodd" clip-rule="evenodd" d="M17.386 2.926C16.086 2.752 14.378 2.75 12 2.75C9.62198 2.75 7.91398 2.752 6.61398 2.926C5.33498 3.098 4.56398 3.426 3.99398 3.995C3.42498 4.565 3.09798 5.335 2.92598 6.614C2.75198 7.914 2.74998 9.622 2.74998 12C2.74998 14.378 2.75198 16.086 2.92598 17.386C3.09798 18.665 3.42598 19.436 3.99498 20.006C4.46198 20.473 5.06498 20.776 5.97398 20.966L20.966 5.974C20.776 5.066 20.473 4.462 20.006 3.994C19.436 3.425 18.665 3.098 17.386 2.926ZM21.187 7.874L15.061 14L20.468 19.407C20.763 18.907 20.955 18.267 21.074 17.387C21.248 16.087 21.25 14.378 21.25 12C21.25 10.322 21.25 8.977 21.187 7.874ZM19.407 20.468L14 15.06L7.87398 21.187C8.97698 21.249 10.322 21.25 12 21.25C14.378 21.25 16.086 21.248 17.386 21.074C18.268 20.955 18.909 20.763 19.408 20.468H19.407ZM17.588 1.44C19.032 1.634 20.172 2.04 21.067 2.934C21.962 3.829 22.367 4.969 22.561 6.414C22.751 7.825 22.751 9.634 22.751 11.943V12.057C22.751 14.366 22.751 16.175 22.561 17.587C22.367 19.031 21.961 20.171 21.067 21.066C20.172 21.961 19.032 22.366 17.587 22.56C16.176 22.75 14.367 22.75 12.058 22.75H11.944C9.63498 22.75 7.82598 22.75 6.41398 22.56C4.96998 22.366 3.82998 21.96 2.93498 21.066C2.03998 20.171 1.63498 19.031 1.44098 17.586C1.25098 16.175 1.25098 14.366 1.25098 12.057V11.943C1.25098 9.634 1.25098 7.825 1.44098 6.413C1.63498 4.969 2.04098 3.829 2.93498 2.934C3.82998 2.039 4.96998 1.634 6.41498 1.44C7.82598 1.25 9.63498 1.25 11.944 1.25H12.058C14.367 1.25 16.176 1.25 17.588 1.44ZM4.74998 8.757C4.74998 6.494 6.70398 4.75 8.99998 4.75C11.296 4.75 13.25 6.494 13.25 8.757C13.25 10.784 12.004 13.175 9.93498 14.059C9.63931 14.1848 9.3213 14.2497 8.99998 14.2497C8.67866 14.2497 8.36064 14.1848 8.06498 14.059C5.99498 13.175 4.74998 10.784 4.74998 8.757ZM8.99998 6.25C7.42998 6.25 6.24998 7.422 6.24998 8.757C6.24998 10.301 7.23798 12.075 8.65498 12.68C8.76417 12.726 8.88147 12.7498 8.99998 12.7498C9.11848 12.7498 9.23578 12.726 9.34498 12.68C10.762 12.075 11.75 10.3 11.75 8.757C11.75 7.422 10.57 6.25 8.99998 6.25Z" fill="white"/>
<path d="M10 9C10 9.26522 9.89464 9.51957 9.70711 9.70711C9.51957 9.89464 9.26522 10 9 10C8.73478 10 8.48043 9.89464 8.29289 9.70711C8.10536 9.51957 8 9.26522 8 9C8 8.73478 8.10536 8.48043 8.29289 8.29289C8.48043 8.10536 8.73478 8 9 8C9.26522 8 9.51957 8.10536 9.70711 8.29289C9.89464 8.48043 10 8.73478 10 9Z" fill="white"/>
</svg>
