<svg width="14" height="14" viewBox="0 0 14 14" fill="none" xmlns="http://www.w3.org/2000/svg">
<g clip-path="url(#clip0_113_4604)">
<path d="M5.5741 9.88261L9.41785 7.10136C9.43382 7.08986 9.44683 7.07472 9.4558 7.05719C9.46477 7.03967 9.46945 7.02027 9.46945 7.00058C9.46945 6.9809 9.46477 6.96149 9.4558 6.94397C9.44683 6.92645 9.43382 6.91131 9.41785 6.8998L5.5741 4.11855C5.49129 4.05918 5.37566 4.11855 5.37566 4.22011V4.95293C5.37566 5.1123 5.45223 5.26386 5.58191 5.35761L7.85379 6.9998L5.58191 8.64355C5.45223 8.7373 5.37566 8.8873 5.37566 9.04824V9.78105C5.37566 9.88261 5.49129 9.94199 5.5741 9.88261Z" fill="#2A414C"/>
<path d="M7 14C10.8656 14 14 10.8656 14 7C14 3.13437 10.8656 0 7 0C3.13437 0 0 3.13437 0 7C0 10.8656 3.13437 14 7 14ZM7 1.1875C10.2094 1.1875 12.8125 3.79062 12.8125 7C12.8125 10.2094 10.2094 12.8125 7 12.8125C3.79062 12.8125 1.1875 10.2094 1.1875 7C1.1875 3.79062 3.79062 1.1875 7 1.1875Z" fill="#2A414C"/>
</g>
<defs>
<clipPath id="clip0_113_4604">
<rect width="14" height="14" fill="white" transform="matrix(-1 0 0 -1 14 14)"/>
</clipPath>
</defs>
</svg>
