<svg width="24" height="24" viewBox="0 0 24 24" fill="none" xmlns="http://www.w3.org/2000/svg">
<path d="M0.6328 4.5375C0.440613 4.34531 0.346863 4.10156 0.346863 3.80625C0.346863 3.51094 0.440613 3.26719 0.6328 3.075C0.824988 2.88281 1.06874 2.78906 1.36405 2.78906H22.7484C23.0437 2.78906 23.2875 2.88281 23.4797 3.075C23.6719 3.26719 23.7656 3.51094 23.7656 3.80625C23.7656 4.10156 23.6719 4.34531 23.4797 4.5375C23.2875 4.72969 23.0437 4.82344 22.7484 4.82344H1.36405C1.06874 4.82344 0.824988 4.72969 0.6328 4.5375ZM23.4797 11.2219C23.6719 11.4141 23.7656 11.6578 23.7656 11.9531C23.7656 12.2484 23.6719 12.4922 23.4797 12.6844C23.2875 12.8766 23.0437 12.9703 22.7484 12.9703H1.36405C1.06874 12.9703 0.824988 12.8766 0.6328 12.6844C0.440613 12.4922 0.346863 12.2484 0.346863 11.9531C0.346863 11.6578 0.440613 11.4141 0.6328 11.2219C0.824988 11.0297 1.06874 10.9359 1.36405 10.9359H22.7484C23.0437 10.9359 23.2875 11.0297 23.4797 11.2219ZM23.4797 19.3641C23.6719 19.5562 23.7656 19.8 23.7656 20.0953C23.7656 20.3906 23.6719 20.6344 23.4797 20.8266C23.2875 21.0187 23.0437 21.1125 22.7484 21.1125H1.36405C1.06874 21.1125 0.824988 21.0187 0.6328 20.8266C0.440613 20.6344 0.346863 20.3906 0.346863 20.0953C0.346863 19.8 0.440613 19.5562 0.6328 19.3641C0.824988 19.1719 1.06874 19.0781 1.36405 19.0781H22.7484C23.0437 19.0781 23.2875 19.1766 23.4797 19.3641Z" fill="white"/>
</svg>
